<mxfile host="app.diagrams.net" agent="Mozilla/5.0 (Windows NT 10.0; Win64; x64) AppleWebKit/537.36 (KHTML, like Gecko) Chrome/133.0.0.0 Safari/537.36 OPR/118.0.0.0 (Edition Yx GX)" version="26.2.10">
  <diagram name="Page-1" id="gzdH4IsVza0jug5FTXFM">
    <mxGraphModel dx="1156" dy="637" grid="1" gridSize="10" guides="1" tooltips="1" connect="1" arrows="1" fold="1" page="1" pageScale="1" pageWidth="850" pageHeight="1100" math="0" shadow="0">
      <root>
        <mxCell id="0" />
        <mxCell id="1" parent="0" />
        <mxCell id="Y9TzAEdYwyFRzhs_86Rs-5" value="&lt;br&gt;&lt;br&gt;&lt;br&gt;&lt;br&gt;&lt;br&gt;&lt;br&gt;&lt;br&gt;&lt;br&gt;&lt;br&gt;Promocode admin panel" style="rounded=1;whiteSpace=wrap;html=1;dashed=1;" vertex="1" parent="1">
          <mxGeometry x="277" y="300" width="295.5" height="170" as="geometry" />
        </mxCell>
        <mxCell id="Y9TzAEdYwyFRzhs_86Rs-1" value="&lt;div&gt;&lt;br&gt;&lt;/div&gt;&lt;div&gt;&lt;br&gt;&lt;/div&gt;&lt;div&gt;&lt;br&gt;&lt;/div&gt;&lt;div&gt;&lt;br&gt;&lt;/div&gt;&lt;div&gt;&lt;br&gt;&lt;/div&gt;&lt;div&gt;&lt;br&gt;&lt;/div&gt;&lt;br&gt;&lt;br&gt;&lt;br&gt;Unity App" style="rounded=1;whiteSpace=wrap;html=1;dashed=1;" vertex="1" parent="1">
          <mxGeometry x="297" y="40" width="255" height="170" as="geometry" />
        </mxCell>
        <mxCell id="Y9TzAEdYwyFRzhs_86Rs-23" style="edgeStyle=orthogonalEdgeStyle;rounded=0;orthogonalLoop=1;jettySize=auto;html=1;entryX=0.25;entryY=0;entryDx=0;entryDy=0;" edge="1" parent="1" source="Y9TzAEdYwyFRzhs_86Rs-2" target="Y9TzAEdYwyFRzhs_86Rs-15">
          <mxGeometry relative="1" as="geometry">
            <Array as="points">
              <mxPoint x="349" y="260" />
              <mxPoint x="483" y="260" />
            </Array>
          </mxGeometry>
        </mxCell>
        <mxCell id="Y9TzAEdYwyFRzhs_86Rs-2" value="Student Registration&lt;br&gt;(REST API)" style="rounded=1;whiteSpace=wrap;html=1;" vertex="1" parent="1">
          <mxGeometry x="297" y="112.5" width="105" height="50" as="geometry" />
        </mxCell>
        <mxCell id="Y9TzAEdYwyFRzhs_86Rs-3" value="Update codebase for new version" style="rounded=1;whiteSpace=wrap;html=1;" vertex="1" parent="1">
          <mxGeometry x="372" y="40" width="105" height="50" as="geometry" />
        </mxCell>
        <mxCell id="Y9TzAEdYwyFRzhs_86Rs-24" style="edgeStyle=orthogonalEdgeStyle;rounded=0;orthogonalLoop=1;jettySize=auto;html=1;entryX=0.5;entryY=0;entryDx=0;entryDy=0;" edge="1" parent="1" source="Y9TzAEdYwyFRzhs_86Rs-4" target="Y9TzAEdYwyFRzhs_86Rs-15">
          <mxGeometry relative="1" as="geometry" />
        </mxCell>
        <mxCell id="Y9TzAEdYwyFRzhs_86Rs-4" value="Set up interaction with promocodes (REST API)" style="rounded=1;whiteSpace=wrap;html=1;" vertex="1" parent="1">
          <mxGeometry x="442" y="110" width="110" height="55" as="geometry" />
        </mxCell>
        <mxCell id="Y9TzAEdYwyFRzhs_86Rs-14" style="edgeStyle=orthogonalEdgeStyle;rounded=0;orthogonalLoop=1;jettySize=auto;html=1;entryX=1;entryY=0.25;entryDx=0;entryDy=0;" edge="1" parent="1" source="Y9TzAEdYwyFRzhs_86Rs-6" target="Y9TzAEdYwyFRzhs_86Rs-8">
          <mxGeometry relative="1" as="geometry" />
        </mxCell>
        <mxCell id="Y9TzAEdYwyFRzhs_86Rs-6" value="Web CRUD for promocodes" style="rounded=1;whiteSpace=wrap;html=1;" vertex="1" parent="1">
          <mxGeometry x="277" y="370" width="120" height="60" as="geometry" />
        </mxCell>
        <mxCell id="Y9TzAEdYwyFRzhs_86Rs-8" value="Promocode" style="swimlane;fontStyle=0;childLayout=stackLayout;horizontal=1;startSize=30;horizontalStack=0;resizeParent=1;resizeParentMax=0;resizeLast=0;collapsible=1;marginBottom=0;whiteSpace=wrap;html=1;" vertex="1" parent="1">
          <mxGeometry x="60" y="370" width="140" height="120" as="geometry" />
        </mxCell>
        <mxCell id="Y9TzAEdYwyFRzhs_86Rs-9" value="Name" style="text;strokeColor=none;fillColor=none;align=left;verticalAlign=middle;spacingLeft=4;spacingRight=4;overflow=hidden;points=[[0,0.5],[1,0.5]];portConstraint=eastwest;rotatable=0;whiteSpace=wrap;html=1;" vertex="1" parent="Y9TzAEdYwyFRzhs_86Rs-8">
          <mxGeometry y="30" width="140" height="30" as="geometry" />
        </mxCell>
        <mxCell id="Y9TzAEdYwyFRzhs_86Rs-10" value="Amount&lt;span style=&quot;white-space: pre;&quot;&gt;&#x9;&lt;/span&gt;" style="text;strokeColor=none;fillColor=none;align=left;verticalAlign=middle;spacingLeft=4;spacingRight=4;overflow=hidden;points=[[0,0.5],[1,0.5]];portConstraint=eastwest;rotatable=0;whiteSpace=wrap;html=1;" vertex="1" parent="Y9TzAEdYwyFRzhs_86Rs-8">
          <mxGeometry y="60" width="140" height="30" as="geometry" />
        </mxCell>
        <mxCell id="Y9TzAEdYwyFRzhs_86Rs-11" value="Duration" style="text;strokeColor=none;fillColor=none;align=left;verticalAlign=middle;spacingLeft=4;spacingRight=4;overflow=hidden;points=[[0,0.5],[1,0.5]];portConstraint=eastwest;rotatable=0;whiteSpace=wrap;html=1;" vertex="1" parent="Y9TzAEdYwyFRzhs_86Rs-8">
          <mxGeometry y="90" width="140" height="30" as="geometry" />
        </mxCell>
        <mxCell id="Y9TzAEdYwyFRzhs_86Rs-18" style="edgeStyle=orthogonalEdgeStyle;rounded=0;orthogonalLoop=1;jettySize=auto;html=1;entryX=0;entryY=0.5;entryDx=0;entryDy=0;" edge="1" parent="1" source="Y9TzAEdYwyFRzhs_86Rs-15" target="Y9TzAEdYwyFRzhs_86Rs-16">
          <mxGeometry relative="1" as="geometry" />
        </mxCell>
        <mxCell id="Y9TzAEdYwyFRzhs_86Rs-26" style="edgeStyle=orthogonalEdgeStyle;rounded=0;orthogonalLoop=1;jettySize=auto;html=1;entryX=0;entryY=0.5;entryDx=0;entryDy=0;" edge="1" parent="1" source="Y9TzAEdYwyFRzhs_86Rs-15" target="Y9TzAEdYwyFRzhs_86Rs-25">
          <mxGeometry relative="1" as="geometry" />
        </mxCell>
        <mxCell id="Y9TzAEdYwyFRzhs_86Rs-15" value="REST API" style="rounded=1;whiteSpace=wrap;html=1;" vertex="1" parent="1">
          <mxGeometry x="452.5" y="350" width="120" height="60" as="geometry" />
        </mxCell>
        <mxCell id="Y9TzAEdYwyFRzhs_86Rs-16" value="JWT Auth" style="rounded=1;whiteSpace=wrap;html=1;" vertex="1" parent="1">
          <mxGeometry x="640" y="270" width="120" height="60" as="geometry" />
        </mxCell>
        <mxCell id="Y9TzAEdYwyFRzhs_86Rs-17" value="Promocode authorization" style="rounded=1;whiteSpace=wrap;html=1;" vertex="1" parent="1">
          <mxGeometry x="640" y="355" width="120" height="60" as="geometry" />
        </mxCell>
        <mxCell id="Y9TzAEdYwyFRzhs_86Rs-19" style="edgeStyle=orthogonalEdgeStyle;rounded=0;orthogonalLoop=1;jettySize=auto;html=1;entryX=0.002;entryY=0.596;entryDx=0;entryDy=0;entryPerimeter=0;" edge="1" parent="1" source="Y9TzAEdYwyFRzhs_86Rs-15" target="Y9TzAEdYwyFRzhs_86Rs-17">
          <mxGeometry relative="1" as="geometry" />
        </mxCell>
        <mxCell id="Y9TzAEdYwyFRzhs_86Rs-22" value="Web CRUD for students" style="rounded=1;whiteSpace=wrap;html=1;" vertex="1" parent="1">
          <mxGeometry x="277" y="300" width="120" height="60" as="geometry" />
        </mxCell>
        <mxCell id="Y9TzAEdYwyFRzhs_86Rs-25" value="User Auth" style="rounded=1;whiteSpace=wrap;html=1;" vertex="1" parent="1">
          <mxGeometry x="640" y="440" width="120" height="60" as="geometry" />
        </mxCell>
        <mxCell id="Y9TzAEdYwyFRzhs_86Rs-27" value="Student" style="swimlane;fontStyle=0;childLayout=stackLayout;horizontal=1;startSize=30;horizontalStack=0;resizeParent=1;resizeParentMax=0;resizeLast=0;collapsible=1;marginBottom=0;whiteSpace=wrap;html=1;" vertex="1" parent="1">
          <mxGeometry x="60" y="30" width="140" height="300" as="geometry" />
        </mxCell>
        <mxCell id="Y9TzAEdYwyFRzhs_86Rs-28" value="login" style="text;strokeColor=none;fillColor=none;align=left;verticalAlign=middle;spacingLeft=4;spacingRight=4;overflow=hidden;points=[[0,0.5],[1,0.5]];portConstraint=eastwest;rotatable=0;whiteSpace=wrap;html=1;" vertex="1" parent="Y9TzAEdYwyFRzhs_86Rs-27">
          <mxGeometry y="30" width="140" height="30" as="geometry" />
        </mxCell>
        <mxCell id="Y9TzAEdYwyFRzhs_86Rs-29" value="password" style="text;strokeColor=none;fillColor=none;align=left;verticalAlign=middle;spacingLeft=4;spacingRight=4;overflow=hidden;points=[[0,0.5],[1,0.5]];portConstraint=eastwest;rotatable=0;whiteSpace=wrap;html=1;" vertex="1" parent="Y9TzAEdYwyFRzhs_86Rs-27">
          <mxGeometry y="60" width="140" height="30" as="geometry" />
        </mxCell>
        <mxCell id="Y9TzAEdYwyFRzhs_86Rs-30" value="promocode" style="text;strokeColor=none;fillColor=none;align=left;verticalAlign=middle;spacingLeft=4;spacingRight=4;overflow=hidden;points=[[0,0.5],[1,0.5]];portConstraint=eastwest;rotatable=0;whiteSpace=wrap;html=1;" vertex="1" parent="Y9TzAEdYwyFRzhs_86Rs-27">
          <mxGeometry y="90" width="140" height="30" as="geometry" />
        </mxCell>
        <mxCell id="Y9TzAEdYwyFRzhs_86Rs-31" value="Full Name" style="text;strokeColor=none;fillColor=none;align=left;verticalAlign=middle;spacingLeft=4;spacingRight=4;overflow=hidden;points=[[0,0.5],[1,0.5]];portConstraint=eastwest;rotatable=0;whiteSpace=wrap;html=1;" vertex="1" parent="Y9TzAEdYwyFRzhs_86Rs-27">
          <mxGeometry y="120" width="140" height="30" as="geometry" />
        </mxCell>
        <mxCell id="Y9TzAEdYwyFRzhs_86Rs-32" value="school" style="text;strokeColor=none;fillColor=none;align=left;verticalAlign=middle;spacingLeft=4;spacingRight=4;overflow=hidden;points=[[0,0.5],[1,0.5]];portConstraint=eastwest;rotatable=0;whiteSpace=wrap;html=1;" vertex="1" parent="Y9TzAEdYwyFRzhs_86Rs-27">
          <mxGeometry y="150" width="140" height="30" as="geometry" />
        </mxCell>
        <mxCell id="Y9TzAEdYwyFRzhs_86Rs-33" value="town" style="text;strokeColor=none;fillColor=none;align=left;verticalAlign=middle;spacingLeft=4;spacingRight=4;overflow=hidden;points=[[0,0.5],[1,0.5]];portConstraint=eastwest;rotatable=0;whiteSpace=wrap;html=1;" vertex="1" parent="Y9TzAEdYwyFRzhs_86Rs-27">
          <mxGeometry y="180" width="140" height="30" as="geometry" />
        </mxCell>
        <mxCell id="Y9TzAEdYwyFRzhs_86Rs-34" value="email" style="text;strokeColor=none;fillColor=none;align=left;verticalAlign=middle;spacingLeft=4;spacingRight=4;overflow=hidden;points=[[0,0.5],[1,0.5]];portConstraint=eastwest;rotatable=0;whiteSpace=wrap;html=1;" vertex="1" parent="Y9TzAEdYwyFRzhs_86Rs-27">
          <mxGeometry y="210" width="140" height="30" as="geometry" />
        </mxCell>
        <mxCell id="Y9TzAEdYwyFRzhs_86Rs-35" value="phone" style="text;strokeColor=none;fillColor=none;align=left;verticalAlign=middle;spacingLeft=4;spacingRight=4;overflow=hidden;points=[[0,0.5],[1,0.5]];portConstraint=eastwest;rotatable=0;whiteSpace=wrap;html=1;" vertex="1" parent="Y9TzAEdYwyFRzhs_86Rs-27">
          <mxGeometry y="240" width="140" height="30" as="geometry" />
        </mxCell>
        <mxCell id="Y9TzAEdYwyFRzhs_86Rs-38" value="allow_personal_proc" style="text;strokeColor=none;fillColor=none;align=left;verticalAlign=middle;spacingLeft=4;spacingRight=4;overflow=hidden;points=[[0,0.5],[1,0.5]];portConstraint=eastwest;rotatable=0;whiteSpace=wrap;html=1;" vertex="1" parent="Y9TzAEdYwyFRzhs_86Rs-27">
          <mxGeometry y="270" width="140" height="30" as="geometry" />
        </mxCell>
        <mxCell id="Y9TzAEdYwyFRzhs_86Rs-37" style="edgeStyle=orthogonalEdgeStyle;rounded=0;orthogonalLoop=1;jettySize=auto;html=1;entryX=0.002;entryY=0.123;entryDx=0;entryDy=0;entryPerimeter=0;" edge="1" parent="1" source="Y9TzAEdYwyFRzhs_86Rs-30" target="Y9TzAEdYwyFRzhs_86Rs-8">
          <mxGeometry relative="1" as="geometry" />
        </mxCell>
        <mxCell id="Y9TzAEdYwyFRzhs_86Rs-39" style="edgeStyle=orthogonalEdgeStyle;rounded=0;orthogonalLoop=1;jettySize=auto;html=1;entryX=1.007;entryY=0.065;entryDx=0;entryDy=0;entryPerimeter=0;" edge="1" parent="1" source="Y9TzAEdYwyFRzhs_86Rs-22" target="Y9TzAEdYwyFRzhs_86Rs-27">
          <mxGeometry relative="1" as="geometry" />
        </mxCell>
      </root>
    </mxGraphModel>
  </diagram>
</mxfile>
